<?xml version="1.0" encoding="UTF-8"?>
<svg version="1.1" xmlns="http://www.w3.org/2000/svg" width="220" height="220">
<path d="M0 0 C9.9 0 19.8 0 30 0 C30 9.9 30 19.8 30 30 C26.7 30 23.4 30 20 30 C20 33.3 20 36.6 20 40 C16.7 40 13.4 40 10 40 C10 43.3 10 46.6 10 50 C6.7 50 3.4 50 0 50 C0 53.3 0 56.6 0 60 C-3.3 60 -6.6 60 -10 60 C-10 63.3 -10 66.6 -10 70 C-13.3 70 -16.6 70 -20 70 C-20 73.3 -20 76.6 -20 80 C-10.1 80 -0.2 80 10 80 C10 76.7 10 73.4 10 70 C13.3 70 16.6 70 20 70 C20 66.7 20 63.4 20 60 C23.3 60 26.6 60 30 60 C30 56.7 30 53.4 30 50 C33.3 50 36.6 50 40 50 C40 46.7 40 43.4 40 40 C43.3 40 46.6 40 50 40 C50 36.7 50 33.4 50 30 C53.3 30 56.6 30 60 30 C60 26.7 60 23.4 60 20 C63.3 20 66.6 20 70 20 C70 16.7 70 13.4 70 10 C73.3 10 76.6 10 80 10 C80 6.7 80 3.4 80 0 C89.9 0 99.8 0 110 0 C110 9.9 110 19.8 110 30 C106.7 30 103.4 30 100 30 C100 33.3 100 36.6 100 40 C96.7 40 93.4 40 90 40 C90 43.3 90 46.6 90 50 C86.7 50 83.4 50 80 50 C80 53.3 80 56.6 80 60 C76.7 60 73.4 60 70 60 C70 63.3 70 66.6 70 70 C66.7 70 63.4 70 60 70 C60 73.3 60 76.6 60 80 C76.5 80 93 80 110 80 C110 89.9 110 99.8 110 110 C106.7 110 103.4 110 100 110 C100 113.3 100 116.6 100 120 C96.7 120 93.4 120 90 120 C90 123.3 90 126.6 90 130 C86.7 130 83.4 130 80 130 C80 133.3 80 136.6 80 140 C76.7 140 73.4 140 70 140 C70 143.3 70 146.6 70 150 C66.7 150 63.4 150 60 150 C60 153.3 60 156.6 60 160 C56.7 160 53.4 160 50 160 C50 163.3 50 166.6 50 170 C46.7 170 43.4 170 40 170 C40 173.3 40 176.6 40 180 C36.7 180 33.4 180 30 180 C30 183.3 30 186.6 30 190 C20.1 190 10.2 190 0 190 C0 186.7 0 183.4 0 180 C-3.3 180 -6.6 180 -10 180 C-10 176.7 -10 173.4 -10 170 C-13.3 170 -16.6 170 -20 170 C-20 166.7 -20 163.4 -20 160 C-23.3 160 -26.6 160 -30 160 C-30 156.7 -30 153.4 -30 150 C-33.3 150 -36.6 150 -40 150 C-40 146.7 -40 143.4 -40 140 C-43.3 140 -46.6 140 -50 140 C-50 136.7 -50 133.4 -50 130 C-53.3 130 -56.6 130 -60 130 C-60 126.7 -60 123.4 -60 120 C-63.3 120 -66.6 120 -70 120 C-70 116.7 -70 113.4 -70 110 C-73.3 110 -76.6 110 -80 110 C-80 100.1 -80 90.2 -80 80 C-76.7 80 -73.4 80 -70 80 C-70 76.7 -70 73.4 -70 70 C-66.7 70 -63.4 70 -60 70 C-60 66.7 -60 63.4 -60 60 C-56.7 60 -53.4 60 -50 60 C-50 56.7 -50 53.4 -50 50 C-46.7 50 -43.4 50 -40 50 C-40 46.7 -40 43.4 -40 40 C-36.7 40 -33.4 40 -30 40 C-30 36.7 -30 33.4 -30 30 C-26.7 30 -23.4 30 -20 30 C-20 26.7 -20 23.4 -20 20 C-16.7 20 -13.4 20 -10 20 C-10 16.7 -10 13.4 -10 10 C-6.7 10 -3.4 10 0 10 C0 6.7 0 3.4 0 0 Z " fill="#EF5B5B" transform="translate(95,15)"/>
<path d="M0 0 C9.9 0 19.8 0 30 0 C30 9.9 30 19.8 30 30 C26.7 30 23.4 30 20 30 C20 33.3 20 36.6 20 40 C16.7 40 13.4 40 10 40 C10 43.3 10 46.6 10 50 C6.7 50 3.4 50 0 50 C0 53.3 0 56.6 0 60 C-3.3 60 -6.6 60 -10 60 C-10 63.3 -10 66.6 -10 70 C-13.3 70 -16.6 70 -20 70 C-20 73.3 -20 76.6 -20 80 C-13.4 80 -6.8 80 0 80 C0 89.9 0 99.8 0 110 C-6.6 110 -13.2 110 -20 110 C-20 113.3 -20 116.6 -20 120 C-16.7 120 -13.4 120 -10 120 C-10 123.3 -10 126.6 -10 130 C-6.7 130 -3.4 130 0 130 C0 133.3 0 136.6 0 140 C3.3 140 6.6 140 10 140 C10 146.6 10 153.2 10 160 C6.7 160 3.4 160 0 160 C0 166.6 0 173.2 0 180 C-3.3 180 -6.6 180 -10 180 C-10 176.7 -10 173.4 -10 170 C-13.3 170 -16.6 170 -20 170 C-20 166.7 -20 163.4 -20 160 C-23.3 160 -26.6 160 -30 160 C-30 156.7 -30 153.4 -30 150 C-33.3 150 -36.6 150 -40 150 C-40 146.7 -40 143.4 -40 140 C-43.3 140 -46.6 140 -50 140 C-50 136.7 -50 133.4 -50 130 C-53.3 130 -56.6 130 -60 130 C-60 126.7 -60 123.4 -60 120 C-63.3 120 -66.6 120 -70 120 C-70 116.7 -70 113.4 -70 110 C-73.3 110 -76.6 110 -80 110 C-80 100.1 -80 90.2 -80 80 C-76.7 80 -73.4 80 -70 80 C-70 76.7 -70 73.4 -70 70 C-66.7 70 -63.4 70 -60 70 C-60 66.7 -60 63.4 -60 60 C-56.7 60 -53.4 60 -50 60 C-50 56.7 -50 53.4 -50 50 C-46.7 50 -43.4 50 -40 50 C-40 46.7 -40 43.4 -40 40 C-36.7 40 -33.4 40 -30 40 C-30 36.7 -30 33.4 -30 30 C-26.7 30 -23.4 30 -20 30 C-20 26.7 -20 23.4 -20 20 C-16.7 20 -13.4 20 -10 20 C-10 16.7 -10 13.4 -10 10 C-6.7 10 -3.4 10 0 10 C0 6.7 0 3.4 0 0 Z " fill="#20A39E" transform="translate(95,15)"/>
<path d="M0 0 C23.1 0 46.2 0 70 0 C70 3.3 70 6.6 70 10 C66.7 10 63.4 10 60 10 C60 13.3 60 16.6 60 20 C56.7 20 53.4 20 50 20 C50 23.3 50 26.6 50 30 C46.7 30 43.4 30 40 30 C40 33.3 40 36.6 40 40 C36.7 40 33.4 40 30 40 C30 36.7 30 33.4 30 30 C26.7 30 23.4 30 20 30 C20 26.7 20 23.4 20 20 C16.7 20 13.4 20 10 20 C10 16.7 10 13.4 10 10 C6.7 10 3.4 10 0 10 C0 6.7 0 3.4 0 0 Z " fill="#FFFFFF" transform="translate(75,125)"/>
</svg>
