<?xml version="1.0" encoding="UTF-8" standalone="no"?>
<svg
   version="1.1"
   width="220"
   height="220"
   id="svg3"
   sodipodi:docname="favicon.svg"
   inkscape:version="1.4.3 (0d15f75, 2025-12-25)"
   xmlns:inkscape="http://www.inkscape.org/namespaces/inkscape"
   xmlns:sodipodi="http://sodipodi.sourceforge.net/DTD/sodipodi-0.dtd"
   xmlns="http://www.w3.org/2000/svg"
   xmlns:svg="http://www.w3.org/2000/svg">
  <defs
     id="defs3" />
  <sodipodi:namedview
     id="namedview3"
     pagecolor="#ffffff"
     bordercolor="#000000"
     borderopacity="0.25"
     inkscape:showpageshadow="2"
     inkscape:pageopacity="0.0"
     inkscape:pagecheckerboard="0"
     inkscape:deskcolor="#d1d1d1"
     inkscape:zoom="0.86008699"
     inkscape:cx="49.413606"
     inkscape:cy="125.56869"
     inkscape:window-width="1135"
     inkscape:window-height="721"
     inkscape:window-x="0"
     inkscape:window-y="43"
     inkscape:window-maximized="0"
     inkscape:current-layer="svg3" />
  <path
     id="path1"
     style="display:inline;mix-blend-mode:normal;fill:#ef5b5b;fill-opacity:1"
     d="M 0 0 L 0 10 L -10 10 L -10 20 L -20 20 L -20 30 L -30 30 L -30 40 L -40 40 L -40 50 L -50 50 L -50 60 L -60 60 L -60 70 L -70 70 L -70 80 L -80 80 L -80 110 L -70 110 L -70 120 L -60 120 L -60 130 L -50 130 L -50 140 L -40 140 L -40 150 L -30 150 L -30 160 L -20 160 L -20 170 L -10 170 L -10 180 L 0 180 L 0 190 L 30 190 L 30 180 L 40 180 L 40 170 L 50 170 L 50 160 L 60 160 L 60 150 L 70 150 L 70 140 L 80 140 L 80 130 L 90 130 L 90 120 L 100 120 L 100 110 L 110 110 L 110 80 L 60 80 L 60 70 L 70 70 L 70 60 L 80 60 L 80 50 L 90 50 L 90 40 L 100 40 L 100 30 L 110 30 L 110 0 L 80 0 L 80 10 L 70 10 L 70 20 L 60 20 L 60 30 L 50 30 L 50 40 L 40 40 L 40 50 L 30 50 L 30 60 L 20 60 L 20 70 L 10 70 L 10 80 L -20 80 L -20 70 L -10 70 L -10 60 L 0 60 L 0 50 L 10 50 L 10 40 L 20 40 L 20 30 L 30 30 L 30 0 L 0 0 z M -20 110 L 50 110 L 50 120 L 40 120 L 40 130 L 30 130 L 30 140 L 20 140 L 20 150 L 10 150 L 10 140 L 0 140 L 0 130 L -10 130 L -10 120 L -20 120 L -20 110 z "
     transform="translate(95,15)" />
  <path
     d="M0 0 C9.9 0 19.8 0 30 0 C30 9.9 30 19.8 30 30 C26.7 30 23.4 30 20 30 C20 33.3 20 36.6 20 40 C16.7 40 13.4 40 10 40 C10 43.3 10 46.6 10 50 C6.7 50 3.4 50 0 50 C0 53.3 0 56.6 0 60 C-3.3 60 -6.6 60 -10 60 C-10 63.3 -10 66.6 -10 70 C-13.3 70 -16.6 70 -20 70 C-20 73.3 -20 76.6 -20 80 C-13.4 80 -6.8 80 0 80 C0 89.9 0 99.8 0 110 C-6.6 110 -13.2 110 -20 110 C-20 113.3 -20 116.6 -20 120 C-16.7 120 -13.4 120 -10 120 C-10 123.3 -10 126.6 -10 130 C-6.7 130 -3.4 130 0 130 C0 133.3 0 136.6 0 140 C3.3 140 6.6 140 10 140 C10 146.6 10 153.2 10 160 C6.7 160 3.4 160 0 160 C0 166.6 0 173.2 0 180 C-3.3 180 -6.6 180 -10 180 C-10 176.7 -10 173.4 -10 170 C-13.3 170 -16.6 170 -20 170 C-20 166.7 -20 163.4 -20 160 C-23.3 160 -26.6 160 -30 160 C-30 156.7 -30 153.4 -30 150 C-33.3 150 -36.6 150 -40 150 C-40 146.7 -40 143.4 -40 140 C-43.3 140 -46.6 140 -50 140 C-50 136.7 -50 133.4 -50 130 C-53.3 130 -56.6 130 -60 130 C-60 126.7 -60 123.4 -60 120 C-63.3 120 -66.6 120 -70 120 C-70 116.7 -70 113.4 -70 110 C-73.3 110 -76.6 110 -80 110 C-80 100.1 -80 90.2 -80 80 C-76.7 80 -73.4 80 -70 80 C-70 76.7 -70 73.4 -70 70 C-66.7 70 -63.4 70 -60 70 C-60 66.7 -60 63.4 -60 60 C-56.7 60 -53.4 60 -50 60 C-50 56.7 -50 53.4 -50 50 C-46.7 50 -43.4 50 -40 50 C-40 46.7 -40 43.4 -40 40 C-36.7 40 -33.4 40 -30 40 C-30 36.7 -30 33.4 -30 30 C-26.7 30 -23.4 30 -20 30 C-20 26.7 -20 23.4 -20 20 C-16.7 20 -13.4 20 -10 20 C-10 16.7 -10 13.4 -10 10 C-6.7 10 -3.4 10 0 10 C0 6.7 0 3.4 0 0 Z "
     fill="#20A39E"
     transform="translate(95,15)"
     id="path2" />
</svg>
